<svg width="15" height="15" viewBox="0 0 15 15" fill="none" xmlns="http://www.w3.org/2000/svg"><path d="M6.604 4.73a.87.87 0 0 0 .128.316 1.025 1.025 0 0 0 .233.247.96.96 0 0 0 .343.137c.069.013.123.013.178.013.055 0 .124 0 .178-.013.052-.013.105-.026.145-.051a.027.027 0 0 1 .014-.004.994.994 0 0 0 .17-.096c.042-.028.083-.069.124-.11l.014-.014c.04-.04.068-.082.096-.123a.458.458 0 0 0 .064-.124c.003-.009.002-.017.005-.025.004-.012.016-.021.02-.032.023-.052.035-.112.048-.162.013-.055.013-.123.013-.178 0-.055 0-.123-.013-.178a1.274 1.274 0 0 0-.055-.179.778.778 0 0 0-.165-.246l-.027-.028-.003-.003a1.098 1.098 0 0 0-.285-.189c-.055-.027-.11-.04-.165-.055-.068-.013-.123-.013-.178-.013-.055 0-.123 0-.178.013-.053.014-.106.027-.158.052a.03.03 0 0 1-.013.003.03.03 0 0 0-.013.003 1.43 1.43 0 0 0-.145.08c-.055.04-.096.068-.137.11-.041.04-.082.082-.11.123-.027.04-.055.096-.082.15a.773.773 0 0 0-.055.165c-.014.069-.014.123-.014.178 0 .055 0 .124.014.179a.82.82 0 0 0 .009.053zM8.556 9.913a.315.315 0 0 1-.316-.315V6.554a.354.354 0 0 0-.356-.357h-1.44a.354.354 0 0 0-.356.357v.74c0 .192.15.357.356.357.16 0 .288.129.288.288v1.7a.288.288 0 0 1-.288.288.354.354 0 0 0-.356.356v.74c0 .193.15.357.356.357h2.112c.192 0 .356-.15.356-.356v-.74a.366.366 0 0 0-.356-.37z" fill="#E32636"/><path d="M7.5 0C3.36 0 0 3.36 0 7.5 0 11.64 3.36 15 7.5 15c4.14 0 7.5-3.36 7.5-7.5C15 3.36 11.64 0 7.5 0zm0 14.013A6.519 6.519 0 0 1 .987 7.5 6.519 6.519 0 0 1 7.5.987 6.519 6.519 0 0 1 14.013 7.5 6.519 6.519 0 0 1 7.5 14.013z" fill="#E32636"/></svg>