<svg width="300" height="300" viewBox="0 0 300 300" fill="none" xmlns="http://www.w3.org/2000/svg"><path d="M11.538 28.845c0-3.392.97-6.669 2.827-9.473l-9.634-6.357A28.718 28.718 0 0 0 0 28.845v43.443h11.538V28.845zM11.539 95.019H0v56.838h11.539V95.019zM11.539 174.599H0v56.839h11.539v-56.839zM11.539 271.153v-16.985H0v16.985c0 15.912 12.946 28.846 28.846 28.846h3.588v-11.538h-3.588c-9.542 0-17.307-7.766-17.307-17.308zM244.696 0h-56.839v11.54h56.839V0zM28.707 11.55c.116 0 .232 0 .358-.011h56.481V0h-56.7c-.473 0-.946.057-1.396.173l1.257 5.584v5.792zM165.126 0h-56.838v11.54h56.838V0zM191.584 288.46h-56.838v11.539h56.838V288.46zM299.999 148.004H288.46v56.838h11.539v-56.838zM112.015 288.46H55.176v11.539h56.839V288.46zM288.461 227.584v43.569c0 3.347-.958 6.6-2.769 9.404l9.68 6.265A28.753 28.753 0 0 0 300 271.153v-43.569h-11.539zM299.999 68.434H288.46v56.827h11.539V68.434zM214.314 288.46v11.539h57.104l-.265-11.539h-56.839zM288.461 45.692h11.538V28.846C299.999 12.935 287.053 0 271.153 0h-3.727v11.539h3.727c9.542 0 17.308 7.765 17.308 17.307v16.846z" fill="#DEDEDE"/></svg>