<svg width="15" height="15" viewBox="0 0 15 15" fill="none" xmlns="http://www.w3.org/2000/svg">
<path d="M6.60354 4.72948C6.62522 4.84167 6.66874 4.95064 6.73212 5.04571C6.78982 5.13226 6.86177 5.2101 6.9429 5.2752C6.95009 5.28097 6.95752 5.28674 6.96521 5.29251C7.06755 5.36074 7.18738 5.4055 7.30799 5.42962C7.37654 5.44333 7.43139 5.44333 7.48623 5.44333C7.54108 5.44333 7.60963 5.44333 7.66448 5.42962C7.71649 5.41662 7.7685 5.40362 7.80881 5.37892C7.8131 5.3763 7.81798 5.37478 7.82301 5.37478C7.82696 5.37478 7.83085 5.37386 7.83438 5.37209C7.88744 5.34555 7.94049 5.31859 7.99355 5.2788C8.03468 5.25138 8.07581 5.21024 8.11695 5.16911L8.13066 5.1554C8.17179 5.11427 8.19921 5.07313 8.22664 5.032C8.25178 4.99429 8.27692 4.95657 8.29149 4.9083C8.29416 4.89945 8.29312 4.89127 8.29629 4.8826C8.30046 4.87119 8.3118 4.86199 8.31663 4.85085C8.33903 4.79922 8.35139 4.73865 8.36375 4.68922C8.37746 4.63438 8.37746 4.56582 8.37746 4.51098C8.37746 4.45613 8.37746 4.38758 8.36375 4.33273C8.35004 4.27789 8.33632 4.22304 8.3089 4.15449C8.26777 4.05851 8.21292 3.97624 8.14437 3.90769C8.13066 3.89397 8.13066 3.89397 8.11695 3.88026C8.11601 3.87933 8.11508 3.8784 8.11414 3.87748C8.0327 3.79726 7.93126 3.73943 7.82901 3.68831C7.77417 3.66088 7.71932 3.64717 7.66448 3.63346C7.59592 3.61975 7.54108 3.61975 7.48623 3.61975C7.43139 3.61975 7.36283 3.61975 7.30799 3.63346C7.2552 3.64666 7.2024 3.65986 7.14961 3.68529C7.14555 3.68724 7.14111 3.68831 7.1366 3.68831C7.13209 3.68831 7.12764 3.68936 7.12361 3.69137C7.07083 3.71777 7.01852 3.74417 6.97892 3.77057C6.92408 3.81171 6.88294 3.83913 6.84181 3.88026C6.80068 3.9214 6.75954 3.96253 6.73212 4.00366C6.7047 4.0448 6.67728 4.09964 6.64985 4.15449C6.62243 4.20933 6.60872 4.26417 6.59501 4.31902C6.5813 4.38758 6.5813 4.44242 6.5813 4.49726C6.5813 4.55211 6.5813 4.62066 6.59501 4.67551C6.59747 4.69515 6.60036 4.71304 6.60354 4.72948Z" fill="#E32636"/>
<path d="M8.55566 9.91311C8.38149 9.91311 8.2403 9.77192 8.2403 9.59776V6.55388C8.2403 6.36192 8.08948 6.19739 7.88381 6.19739H6.44414C6.25218 6.19739 6.08765 6.34821 6.08765 6.55388V7.29428C6.08765 7.48624 6.23847 7.65077 6.44414 7.65077C6.60316 7.65077 6.73207 7.77968 6.73207 7.9387V9.63889C6.73207 9.79791 6.60316 9.92682 6.44414 9.92682C6.25218 9.92682 6.08765 10.0776 6.08765 10.2833V11.0237C6.08765 11.2157 6.23847 11.3802 6.44414 11.3802H8.55566C8.74761 11.3802 8.91214 11.2294 8.91214 11.0237V10.2833C8.91214 10.0776 8.74761 9.91311 8.55566 9.91311Z" fill="#E32636"/>
<path d="M7.5 0C3.35923 0 0 3.35923 0 7.5C0 11.6408 3.35923 15 7.5 15C11.6408 15 15 11.6408 15 7.5C15 3.35923 11.6408 0 7.5 0ZM7.5 14.0128C3.90768 14.0128 0.987203 11.0923 0.987203 7.5C0.987203 3.90768 3.90768 0.987203 7.5 0.987203C11.0923 0.987203 14.0128 3.90768 14.0128 7.5C14.0128 11.0923 11.0923 14.0128 7.5 14.0128Z" fill="#E32636"/>
</svg>
