<svg width="100" height="100" viewBox="0 0 100 100" fill="none" xmlns="http://www.w3.org/2000/svg">
<path fill-rule="evenodd" clip-rule="evenodd" d="M44.3828 90.1216C44.3828 93.6667 47.2561 96.54 50.8012 96.54C54.3462 96.54 57.2195 93.6667 57.2195 90.1216L57.2195 56.4184L89.316 56.4184C92.861 56.4184 95.7343 53.5451 95.7343 50C95.7343 46.4549 92.861 43.5816 89.3159 43.5816L57.2195 43.5816L57.2195 9.87835C57.2195 6.33326 54.3462 3.45998 50.8012 3.45998C47.2583 3.45771 44.3828 6.33327 44.3828 9.87835L44.3828 43.5816L9.07719 43.5816C5.53211 43.5816 2.65881 46.4549 2.65881 50C2.65881 53.5451 5.5321 56.4184 9.07718 56.4184L44.3828 56.4184L44.3828 90.1216Z" fill="#DEDEDE"/>
</svg>
