<svg width="300" height="300" viewBox="0 0 300 300" fill="none" xmlns="http://www.w3.org/2000/svg">
<path d="M11.538 28.8451C11.538 25.4527 12.5078 22.1762 14.3652 19.3722L4.73071 13.0148C1.63822 17.7109 0 23.1921 0 28.8458V72.2881H11.538V28.8451Z" fill="#DEDEDE"/>
<path d="M11.5387 95.0186H0V151.857H11.5387V95.0186Z" fill="#DEDEDE"/>
<path d="M11.5387 174.599H0V231.438H11.5387V174.599Z" fill="#DEDEDE"/>
<path d="M11.5387 271.153V254.168H0V271.153C0 287.065 12.9462 299.999 28.8457 299.999H32.4343C32.4343 299.999 32.4343 288.461 32.4349 288.461H28.8464C19.3042 288.461 11.5387 280.695 11.5387 271.153Z" fill="#DEDEDE"/>
<path d="M244.696 0.000610352H187.857V11.5393H244.696V0.000610352Z" fill="#DEDEDE"/>
<path d="M28.7072 11.5502C28.8226 11.5502 28.9386 11.5502 29.0655 11.5386H85.5462V0.000610352H28.8463C28.3726 0.000610352 27.8996 0.0582941 27.4497 0.173662L28.7072 5.75809C28.7072 5.75745 28.7072 11.5502 28.7072 11.5502Z" fill="#DEDEDE"/>
<path d="M165.126 0.000610352H108.288V11.5393H165.126V0.000610352Z" fill="#DEDEDE"/>
<path d="M191.584 288.46H134.746V299.999H191.584V288.46Z" fill="#DEDEDE"/>
<path d="M299.999 148.004H288.46V204.842H299.999V148.004Z" fill="#DEDEDE"/>
<path d="M112.015 288.46H55.1765V299.999H112.015V288.46Z" fill="#DEDEDE"/>
<path d="M288.461 227.584V271.153C288.461 274.5 287.503 277.753 285.692 280.557L295.372 286.822C298.395 282.161 299.999 276.737 300 271.153V227.584H288.461Z" fill="#DEDEDE"/>
<path d="M299.999 68.4341H288.46V125.261H299.999V68.4341Z" fill="#DEDEDE"/>
<path d="M214.314 288.46V299.999H271.418L271.153 288.46H214.314Z" fill="#DEDEDE"/>
<path d="M288.461 45.692H299.999V28.8464C299.999 12.9346 287.053 0 271.153 0H267.426V11.5387H271.153C280.695 11.5387 288.461 19.3042 288.461 28.8464V45.692Z" fill="#DEDEDE"/>
</svg>
